<svg width="204" height="154" viewBox="0 0 204 154" fill="none" xmlns="http://www.w3.org/2000/svg">
<path d="M86.0139 52.6839C86.7132 52.6839 87.2802 52.1167 87.2802 51.4169C87.2802 50.7172 86.7132 50.1499 86.0139 50.1499C85.3145 50.1499 84.7476 50.7172 84.7476 51.4169C84.7476 52.1167 85.3145 52.6839 86.0139 52.6839Z" fill="#EAF0F5"/>
<path d="M90.2443 52.6839C90.9437 52.6839 91.5106 52.1167 91.5106 51.4169C91.5106 50.7172 90.9437 50.1499 90.2443 50.1499C89.545 50.1499 88.978 50.7172 88.978 51.4169C88.978 52.1167 89.545 52.6839 90.2443 52.6839Z" fill="#EAF0F5"/>
<path d="M94.4738 52.6839C95.1732 52.6839 95.7401 52.1167 95.7401 51.4169C95.7401 50.7172 95.1732 50.1499 94.4738 50.1499C93.7745 50.1499 93.2075 50.7172 93.2075 51.4169C93.2075 52.1167 93.7745 52.6839 94.4738 52.6839Z" fill="#EAF0F5"/>
<path d="M63.7145 107.557C63.5665 107.691 63.3711 107.761 63.1714 107.752C62.9718 107.742 62.7841 107.653 62.6498 107.505L61.3117 106.025C61.1774 105.876 61.1076 105.681 61.1176 105.481C61.1277 105.281 61.2167 105.093 61.3651 104.958C61.5136 104.824 61.7093 104.754 61.9092 104.764C62.1091 104.774 62.2969 104.863 62.4312 105.012L63.7693 106.492C63.9032 106.64 63.9727 106.836 63.9624 107.036C63.9521 107.236 63.863 107.423 63.7145 107.557Z" fill="#607D7C"/>
<path d="M67.3168 111.543C67.2435 111.609 67.1578 111.661 67.0646 111.694C66.9714 111.728 66.8725 111.742 66.7737 111.738C66.6748 111.733 66.5779 111.708 66.4884 111.666C66.3989 111.624 66.3186 111.564 66.2521 111.491L64.914 110.011C64.7807 109.862 64.7118 109.667 64.7222 109.467C64.7327 109.268 64.8216 109.081 64.9696 108.947C65.1176 108.813 65.3127 108.743 65.512 108.752C65.7114 108.762 65.8989 108.85 66.0334 108.998L67.3716 110.478C67.5055 110.626 67.5749 110.822 67.5647 111.022C67.5544 111.221 67.4652 111.409 67.3168 111.543Z" fill="#607D7C"/>
<path d="M67.5847 106.33L66.1015 107.673C66.0282 107.739 65.9425 107.79 65.8494 107.824C65.7563 107.857 65.6576 107.871 65.5588 107.867C65.3595 107.857 65.1722 107.768 65.0383 107.62C64.9043 107.471 64.8347 107.276 64.8447 107.077C64.8547 106.877 64.9435 106.69 65.0915 106.556L66.5747 105.213C66.648 105.147 66.7337 105.095 66.8269 105.061C66.9201 105.028 67.019 105.013 67.1179 105.018C67.2169 105.023 67.3139 105.047 67.4034 105.089C67.4929 105.132 67.5732 105.191 67.6397 105.265C67.7061 105.338 67.7574 105.424 67.7906 105.518C67.8238 105.611 67.8383 105.71 67.8332 105.809C67.8281 105.908 67.8035 106.005 67.7609 106.095C67.7182 106.184 67.6584 106.264 67.5847 106.33Z" fill="#607D7C"/>
<path d="M63.5917 109.946L62.1086 111.289C62.0353 111.355 61.9497 111.407 61.8564 111.44C61.7632 111.474 61.6643 111.489 61.5654 111.484C61.4665 111.479 61.3694 111.455 61.2799 111.413C61.1904 111.37 61.1101 111.31 61.0436 111.237C60.9772 111.163 60.9259 111.078 60.8927 110.984C60.8595 110.891 60.845 110.792 60.8501 110.693C60.8552 110.594 60.8798 110.497 60.9225 110.407C60.9651 110.318 61.025 110.238 61.0986 110.172L62.5818 108.829C62.6551 108.762 62.7408 108.711 62.834 108.677C62.9273 108.643 63.0263 108.628 63.1253 108.633C63.2243 108.638 63.3214 108.662 63.4111 108.705C63.5007 108.747 63.581 108.807 63.6475 108.88C63.714 108.954 63.7654 109.04 63.7985 109.133C63.8317 109.227 63.8462 109.326 63.841 109.425C63.8358 109.524 63.8111 109.621 63.7683 109.711C63.7255 109.8 63.6655 109.88 63.5917 109.946Z" fill="#607D7C"/>
<path d="M61.9782 44.2038C61.9353 44.2427 61.8852 44.2728 61.8307 44.2923C61.7762 44.3118 61.7184 44.3204 61.6606 44.3176C61.6027 44.3148 61.546 44.3006 61.4937 44.2759C61.4414 44.2511 61.3944 44.2163 61.3555 44.1734L60.5729 43.3078C60.4944 43.2209 60.4536 43.1064 60.4594 42.9894C60.4653 42.8724 60.5173 42.7625 60.6042 42.6839C60.691 42.6054 60.8054 42.5645 60.9224 42.5704C61.0393 42.5762 61.1491 42.6283 61.2276 42.7152L62.0103 43.5809C62.0886 43.6677 62.1292 43.7821 62.1232 43.899C62.1172 44.0158 62.065 44.1254 61.9782 44.2038Z" fill="#607D7C"/>
<path d="M64.0853 46.5339C64.0424 46.5728 63.9923 46.6029 63.9378 46.6224C63.8833 46.6419 63.8255 46.6505 63.7676 46.6477C63.7098 46.6449 63.6531 46.6307 63.6008 46.6059C63.5484 46.5812 63.5015 46.5464 63.4626 46.5035L62.68 45.6378C62.6014 45.551 62.5606 45.4365 62.5665 45.3195C62.5723 45.2025 62.6244 45.0926 62.7112 45.014C62.798 44.9354 62.9125 44.8946 63.0294 44.9005C63.1463 44.9063 63.2562 44.9584 63.3347 45.0453L64.1173 45.9109C64.1956 45.9978 64.2362 46.1122 64.2302 46.229C64.2242 46.3458 64.1721 46.4555 64.0853 46.5339Z" fill="#607D7C"/>
<path d="M64.2419 43.4874L63.3745 44.2725C63.3317 44.3118 63.2815 44.3422 63.2269 44.362C63.1724 44.3817 63.1144 44.3905 63.0564 44.3878C62.9984 44.3851 62.9415 44.3709 62.889 44.3461C62.8365 44.3213 62.7894 44.2864 62.7505 44.2433C62.7115 44.2002 62.6815 44.1499 62.6621 44.0951C62.6427 44.0404 62.6343 43.9823 62.6373 43.9243C62.6404 43.8663 62.655 43.8095 62.6801 43.7571C62.7052 43.7047 62.7405 43.6579 62.7838 43.6192L63.6512 42.834C63.694 42.7948 63.7442 42.7644 63.7988 42.7446C63.8533 42.7248 63.9113 42.716 63.9693 42.7187C64.0273 42.7215 64.0842 42.7356 64.1367 42.7604C64.1892 42.7852 64.2363 42.8202 64.2752 42.8633C64.3142 42.9063 64.3442 42.9567 64.3636 43.0114C64.383 43.0662 64.3915 43.1242 64.3884 43.1822C64.3853 43.2402 64.3707 43.2971 64.3456 43.3494C64.3205 43.4018 64.2852 43.4487 64.2419 43.4874Z" fill="#607D7C"/>
<path d="M61.9065 45.6008L61.0391 46.3858C60.9963 46.425 60.9462 46.4554 60.8916 46.4752C60.837 46.495 60.7791 46.5038 60.7211 46.5011C60.6631 46.4984 60.6062 46.4842 60.5537 46.4594C60.5012 46.4346 60.4541 46.3996 60.4152 46.3566C60.3762 46.3135 60.3462 46.2631 60.3267 46.2084C60.3073 46.1536 60.2989 46.0956 60.302 46.0376C60.3051 45.9796 60.3196 45.9227 60.3448 45.8704C60.3699 45.818 60.4051 45.7711 60.4484 45.7324L61.3159 44.9473C61.4025 44.8689 61.5167 44.8282 61.6333 44.8341C61.7499 44.8399 61.8594 44.8919 61.9377 44.9785C62.0161 45.0652 62.0568 45.1794 62.0509 45.2961C62.0451 45.4128 61.9931 45.5223 61.9065 45.6007V45.6008Z" fill="#607D7C"/>
<path d="M132.816 107.464C132.773 107.503 132.723 107.533 132.668 107.552C132.614 107.572 132.556 107.581 132.498 107.578C132.44 107.575 132.384 107.561 132.331 107.536C132.279 107.511 132.232 107.476 132.193 107.434L131.41 106.568C131.333 106.481 131.292 106.367 131.298 106.25C131.305 106.133 131.357 106.024 131.443 105.946C131.53 105.867 131.644 105.826 131.76 105.832C131.877 105.838 131.986 105.889 132.065 105.975L132.848 106.841C132.926 106.928 132.967 107.042 132.961 107.159C132.955 107.276 132.903 107.386 132.816 107.464Z" fill="#607D7C"/>
<path d="M134.923 109.794C134.837 109.872 134.722 109.913 134.606 109.907C134.489 109.902 134.379 109.85 134.3 109.763L133.518 108.898C133.439 108.811 133.399 108.696 133.404 108.579C133.41 108.462 133.462 108.352 133.549 108.274C133.636 108.195 133.75 108.154 133.867 108.16C133.984 108.166 134.094 108.218 134.173 108.305L134.955 109.171C135.034 109.258 135.074 109.372 135.068 109.489C135.062 109.606 135.01 109.715 134.923 109.794Z" fill="#607D7C"/>
<path d="M135.079 106.746L134.212 107.531C134.169 107.57 134.119 107.601 134.064 107.621C134.01 107.64 133.952 107.649 133.894 107.646C133.836 107.644 133.779 107.63 133.726 107.605C133.674 107.58 133.627 107.545 133.588 107.502C133.549 107.459 133.519 107.408 133.499 107.354C133.48 107.299 133.472 107.241 133.475 107.183C133.478 107.125 133.492 107.068 133.518 107.016C133.543 106.963 133.578 106.917 133.621 106.878L134.489 106.093C134.531 106.054 134.582 106.024 134.636 106.004C134.691 105.984 134.748 105.976 134.806 105.979C134.864 105.981 134.921 105.996 134.973 106.02C135.026 106.045 135.073 106.08 135.111 106.123C135.15 106.166 135.18 106.216 135.2 106.271C135.219 106.325 135.228 106.383 135.225 106.441C135.222 106.499 135.207 106.556 135.182 106.608C135.157 106.66 135.122 106.707 135.079 106.746V106.746Z" fill="#607D7C"/>
<path d="M132.744 108.861L131.877 109.646C131.834 109.685 131.784 109.715 131.729 109.735C131.675 109.755 131.617 109.764 131.559 109.761C131.501 109.758 131.444 109.744 131.391 109.719C131.339 109.694 131.292 109.659 131.253 109.616C131.214 109.573 131.184 109.523 131.165 109.468C131.145 109.413 131.137 109.355 131.14 109.297C131.143 109.239 131.157 109.183 131.183 109.13C131.208 109.078 131.243 109.031 131.286 108.992L132.154 108.207C132.197 108.168 132.247 108.138 132.301 108.119C132.356 108.099 132.413 108.091 132.471 108.094C132.529 108.097 132.585 108.111 132.638 108.136C132.69 108.161 132.737 108.195 132.776 108.238C132.814 108.281 132.844 108.331 132.864 108.386C132.883 108.44 132.892 108.498 132.889 108.556C132.886 108.614 132.872 108.67 132.847 108.723C132.822 108.775 132.787 108.822 132.744 108.86V108.861Z" fill="#607D7C"/>
<path opacity="0.6" d="M139.568 47.4909L140.857 47.225C140.987 47.1965 141.102 47.1247 141.185 47.0214C141.268 46.9181 141.314 46.7895 141.314 46.6569C141.314 46.5244 141.268 46.3958 141.185 46.2925C141.102 46.1892 140.987 46.1173 140.857 46.0889L139.568 45.8229C138.942 45.6905 138.37 45.3766 137.921 44.9205C137.473 44.4643 137.169 43.8861 137.047 43.258L136.785 41.9464C136.761 41.8159 136.692 41.6981 136.59 41.6132C136.488 41.5284 136.36 41.4819 136.227 41.4819C136.094 41.4819 135.966 41.5284 135.864 41.6132C135.762 41.6981 135.693 41.8159 135.669 41.9464L135.407 43.258C135.285 43.8861 134.981 44.4643 134.533 44.9205C134.085 45.3766 133.512 45.6905 132.886 45.8229L131.597 46.0889C131.468 46.1173 131.352 46.1892 131.269 46.2925C131.186 46.3958 131.141 46.5244 131.141 46.6569C131.141 46.7895 131.186 46.9181 131.269 47.0214C131.352 47.1247 131.468 47.1965 131.597 47.225L132.886 47.4909C133.512 47.6233 134.085 47.9372 134.533 48.3933C134.981 48.8495 135.285 49.4277 135.407 50.0558L135.669 51.3674C135.693 51.4979 135.762 51.6158 135.864 51.7006C135.966 51.7854 136.094 51.8319 136.227 51.8319C136.36 51.8319 136.488 51.7854 136.59 51.7006C136.692 51.6158 136.761 51.4979 136.785 51.3674L137.047 50.0558C137.169 49.4277 137.473 48.8495 137.921 48.3933C138.37 47.9372 138.942 47.6233 139.568 47.4909Z" fill="#E93755"/>
<path opacity="0.6" d="M67.0819 80.3997L68.1831 80.1725C68.2936 80.1482 68.3925 80.0868 68.4634 79.9986C68.5343 79.9104 68.573 79.8005 68.573 79.6873C68.573 79.5741 68.5343 79.4642 68.4634 79.376C68.3925 79.2878 68.2936 79.2264 68.1831 79.2021L67.0819 78.975C66.5475 78.8619 66.0583 78.5938 65.6754 78.2042C65.2924 77.8145 65.0327 77.3207 64.9286 76.7842L64.7053 75.6638C64.6846 75.5523 64.6256 75.4517 64.5385 75.3792C64.4514 75.3068 64.3417 75.2671 64.2284 75.2671C64.1151 75.2671 64.0054 75.3068 63.9183 75.3792C63.8312 75.4517 63.7722 75.5523 63.7515 75.6638L63.5282 76.7842C63.4241 77.3207 63.1644 77.8145 62.7814 78.2042C62.3984 78.5938 61.9092 78.8619 61.3749 78.975L60.2737 79.2021C60.1632 79.2264 60.0643 79.2878 59.9934 79.376C59.9224 79.4642 59.8838 79.5741 59.8838 79.6873C59.8838 79.8005 59.9224 79.9104 59.9934 79.9986C60.0643 80.0868 60.1632 80.1482 60.2737 80.1725L61.3749 80.3997C61.9092 80.5127 62.3984 80.7808 62.7814 81.1704C63.1644 81.5601 63.4241 82.0539 63.5282 82.5904L63.7515 83.7108C63.7722 83.8223 63.8312 83.9229 63.9183 83.9954C64.0054 84.0678 64.1151 84.1075 64.2284 84.1075C64.3417 84.1075 64.4514 84.0678 64.5385 83.9954C64.6256 83.9229 64.6846 83.8223 64.7053 83.7108L64.9286 82.5904C65.0327 82.0539 65.2924 81.5601 65.6754 81.1705C66.0583 80.7808 66.5476 80.5127 67.0819 80.3997Z" fill="#E93755"/>
<path opacity="0.6" d="M80.6222 44.0482L81.1728 43.9346C81.228 43.9225 81.2775 43.8918 81.3129 43.8477C81.3484 43.8036 81.3677 43.7486 81.3677 43.692C81.3677 43.6354 81.3484 43.5805 81.3129 43.5364C81.2775 43.4923 81.228 43.4616 81.1728 43.4494L80.6222 43.3359C80.355 43.2793 80.1104 43.1453 79.9189 42.9505C79.7274 42.7557 79.5976 42.5087 79.5455 42.2405L79.4338 41.6803C79.4234 41.6246 79.3939 41.5742 79.3504 41.538C79.3068 41.5018 79.252 41.4819 79.1953 41.4819C79.1387 41.4819 79.0838 41.5018 79.0403 41.538C78.9967 41.5742 78.9672 41.6246 78.9569 41.6803L78.8451 42.2405C78.7931 42.5087 78.6632 42.7557 78.4717 42.9505C78.2803 43.1453 78.0357 43.2793 77.7685 43.3359L77.2179 43.4494C77.1626 43.4616 77.1132 43.4923 77.0777 43.5364C77.0423 43.5805 77.0229 43.6354 77.0229 43.692C77.0229 43.7486 77.0423 43.8036 77.0777 43.8477C77.1132 43.8918 77.1626 43.9225 77.2179 43.9346L77.7685 44.0482C78.0357 44.1048 78.2803 44.2388 78.4717 44.4336C78.6632 44.6284 78.7931 44.8754 78.8451 45.1436L78.9569 45.7037C78.9672 45.7595 78.9967 45.8098 79.0403 45.8461C79.0838 45.8823 79.1387 45.9021 79.1953 45.9021C79.252 45.9021 79.3068 45.8823 79.3504 45.8461C79.3939 45.8098 79.4234 45.7595 79.4338 45.7037L79.5455 45.1436C79.5976 44.8754 79.7274 44.6284 79.9189 44.4336C80.1104 44.2388 80.355 44.1048 80.6222 44.0482Z" fill="#E93755"/>
<path opacity="0.6" d="M135.357 85.0978L135.999 84.9653C136.064 84.9511 136.122 84.9154 136.163 84.8639C136.205 84.8124 136.227 84.7482 136.227 84.6821C136.227 84.616 136.205 84.5519 136.163 84.5004C136.122 84.4489 136.064 84.4131 135.999 84.399L135.357 84.2664C135.045 84.2005 134.76 84.0441 134.536 83.8167C134.313 83.5894 134.161 83.3012 134.1 82.9882L133.97 82.3344C133.958 82.2694 133.924 82.2107 133.873 82.1684C133.822 82.1262 133.758 82.103 133.692 82.103C133.626 82.103 133.562 82.1262 133.511 82.1684C133.46 82.2107 133.426 82.2694 133.414 82.3344L133.283 82.9882C133.223 83.3012 133.071 83.5894 132.848 83.8167C132.624 84.0441 132.339 84.2005 132.027 84.2664L131.384 84.399C131.32 84.4131 131.262 84.4489 131.221 84.5004C131.179 84.5519 131.157 84.616 131.157 84.6821C131.157 84.7482 131.179 84.8124 131.221 84.8639C131.262 84.9154 131.32 84.9511 131.384 84.9653L132.027 85.0978C132.339 85.1638 132.624 85.3202 132.848 85.5476C133.071 85.7749 133.223 86.0631 133.283 86.3761L133.414 87.0298C133.426 87.0949 133.46 87.1536 133.511 87.1958C133.562 87.2381 133.626 87.2613 133.692 87.2613C133.758 87.2613 133.822 87.2381 133.873 87.1958C133.924 87.1536 133.958 87.0949 133.97 87.0298L134.1 86.3761C134.161 86.0631 134.313 85.7749 134.536 85.5476C134.76 85.3202 135.045 85.1638 135.357 85.0978Z" fill="#E93755"/>
<path opacity="0.24" fill-rule="evenodd" clip-rule="evenodd" d="M0 84.5203C0 102.14 6.35179 118.195 16.8041 130.329C28.7952 144.254 46.1836 153.009 65.5659 153.039C74.0367 153.051 82.1364 151.387 89.5763 148.348C93.4231 146.776 97.7286 146.957 101.454 148.819C105.825 151 110.719 152.223 115.886 152.223C118.021 152.223 120.111 152.013 122.133 151.614C127.905 150.479 133.158 147.793 137.472 143.989C140.182 141.598 143.654 140.396 147.203 140.4H147.263C158.989 140.4 169.88 136.689 178.923 130.329C187.007 124.651 193.608 116.858 198.006 107.709C201.841 99.7355 204 90.7284 204 81.1956C204 48.5001 178.596 21.9912 147.263 21.9912C144.069 21.9912 140.94 22.2728 137.886 22.7981C129.802 9.1421 115.326 0.0385742 98.8118 0.0385742C91.8396 0.0385742 85.2296 1.66109 79.3129 4.56959C73.6861 7.32661 68.6833 11.2442 64.5908 16.0186C50.6946 16.2498 37.8454 20.9868 27.3288 28.8924C10.7744 41.3295 0 61.6135 0 84.5203Z" fill="url(#paint0_linear_803_45711)"/>
<path d="M125 72.8386H112.2C111.107 72.8386 110.2 71.9319 110.2 70.8386V58.0386C110.2 56.9452 111.107 56.0386 112.2 56.0386C113.293 56.0386 114.2 56.9452 114.2 58.0386V68.8386H125C126.093 68.8386 127 69.7452 127 70.8386C127 71.9319 126.093 72.8386 125 72.8386Z" fill="#35A839"/>
<path opacity="0.4" d="M100.44 87.9321L91.72 96.6521C90.76 95.7987 89.8267 94.9187 88.92 94.0121C86.1734 91.2387 83.6934 88.3321 81.48 85.2921C79.2934 82.2521 77.5334 79.2121 76.2534 76.1987C74.9734 73.1587 74.3334 70.2521 74.3334 67.4787C74.3334 65.6654 74.6534 63.9321 75.2934 62.3321C75.9334 60.7054 76.9467 59.2121 78.36 57.8787C80.0667 56.1987 81.9334 55.3721 83.9067 55.3721C84.6534 55.3721 85.4 55.5321 86.0667 55.8521C86.76 56.1721 87.3734 56.6521 87.8534 57.3454L94.04 66.0654C94.52 66.7321 94.8667 67.3454 95.1067 67.9321C95.3467 68.4921 95.48 69.0521 95.48 69.5587C95.48 70.1987 95.2934 70.8387 94.92 71.4521C94.5734 72.0654 94.0667 72.7054 93.4267 73.3454L91.4 75.4521C91.1067 75.7454 90.9734 76.0921 90.9734 76.5187C90.9734 76.7321 91 76.9187 91.0534 77.1321C91.1334 77.3454 91.2134 77.5054 91.2667 77.6654C91.7467 78.5454 92.5734 79.6921 93.7467 81.0787C94.9467 82.4654 96.2267 83.8787 97.6134 85.2921C98.5734 86.2254 99.5067 87.1321 100.44 87.9321Z" fill="#35A839"/>
<path d="M127.587 98.9185C127.587 99.6652 127.453 100.439 127.187 101.185C127.107 101.399 127.027 101.612 126.92 101.825C126.467 102.785 125.88 103.692 125.107 104.545C123.8 105.985 122.36 107.025 120.733 107.692C120.707 107.692 120.68 107.719 120.653 107.719C119.08 108.359 117.373 108.705 115.533 108.705C112.813 108.705 109.907 108.065 106.84 106.759C103.773 105.452 100.707 103.692 97.6666 101.479C96.6266 100.705 95.5866 99.9318 94.6 99.1052L103.32 90.3852C104.067 90.9452 104.733 91.3718 105.293 91.6652C105.427 91.7185 105.587 91.7985 105.773 91.8785C105.987 91.9585 106.2 91.9852 106.44 91.9852C106.893 91.9852 107.24 91.8252 107.533 91.5319L109.56 89.5319C110.227 88.8652 110.867 88.3585 111.48 88.0385C112.093 87.6652 112.707 87.4785 113.373 87.4785C113.88 87.4785 114.413 87.5852 115 87.8252C115.587 88.0652 116.2 88.4119 116.867 88.8652L125.693 95.1318C126.387 95.6118 126.867 96.1718 127.16 96.8385C127.427 97.5052 127.587 98.1719 127.587 98.9185Z" fill="#35A839"/>
<defs>
<linearGradient id="paint0_linear_803_45711" x1="59.5" y1="103.972" x2="129.298" y2="5.24291" gradientUnits="userSpaceOnUse">
<stop stop-color="#FDFDFD"/>
<stop offset="1" stop-color="#71BD74"/>
</linearGradient>
</defs>
</svg>
