<svg width="23" height="23" viewBox="0 0 23 23" fill="none" xmlns="http://www.w3.org/2000/svg">
<path d="M11.5 0L12.5522 3.1712L14.3599 0.361294L14.5904 3.69453L17.0402 1.42247L16.4345 4.7083L19.3723 3.11686L17.9685 6.14883L21.2098 5.33799L19.096 7.92558L22.4371 7.9463L19.7463 9.92693L22.9773 10.7779L19.8784 12.0271L22.7963 13.6549L19.4841 14.0942L21.9055 16.3965L18.5881 15.9983L20.3609 18.8304L17.2468 17.6197L18.2595 20.8037L15.5443 18.8566L15.7334 22.1924L13.5878 19.6313L12.9413 22.9093L11.5 19.895L10.0587 22.9093L9.41225 19.6313L7.26657 22.1924L7.45568 18.8566L4.74047 20.8037L5.75323 17.6197L2.6391 18.8304L4.41187 15.9983L1.09449 16.3965L3.51588 14.0942L0.203696 13.6549L3.12157 12.0271L0.0226927 10.7779L3.2537 9.92693L0.56285 7.9463L3.90398 7.92558L1.79023 5.33799L5.03154 6.14883L3.62771 3.11686L6.56554 4.7083L5.95983 1.42247L8.40959 3.69453L8.64007 0.361294L10.4478 3.1712L11.5 0Z" fill="#CF2632"/>
<path d="M6.06836 13V8.54102L9.20605 11.9688V8.71094H9.69238V13.167L6.55469 9.77734V13H6.06836ZM12.5752 11.3564C12.5576 11.1221 12.4785 10.9404 12.3379 10.8115C12.1973 10.6826 12.0039 10.6182 11.7578 10.6182C11.5352 10.6182 11.3477 10.6855 11.2012 10.8203C11.0518 10.9551 10.9668 11.1338 10.9434 11.3564H12.5752ZM13.0674 11.7285H10.9434V11.7695C10.9434 12.0566 11.0254 12.291 11.1895 12.4668C11.3535 12.6426 11.5674 12.7305 11.8311 12.7305C12.0098 12.7305 12.1709 12.6836 12.3174 12.5869C12.4609 12.4902 12.5898 12.3438 12.7012 12.1475L13.0498 12.3818C12.915 12.625 12.7422 12.8066 12.5342 12.9297C12.3232 13.0527 12.083 13.1143 11.8076 13.1143C11.3975 13.1143 11.0693 12.9795 10.8174 12.71C10.5654 12.4404 10.4395 12.0889 10.4395 11.6494C10.4395 11.2305 10.5625 10.8877 10.8145 10.6182C11.0635 10.3516 11.3857 10.2168 11.7783 10.2168C12.1738 10.2168 12.4873 10.3457 12.7188 10.5977C12.9502 10.8525 13.0674 11.1982 13.0674 11.6377V11.7285ZM15.4053 10.2227L16.208 12.1475L16.9287 10.3193H17.4443L16.252 13.167L15.3701 11.1104L14.4883 13.167L13.293 10.3193H13.8027L14.5176 12.1475L15.332 10.2227H15.4053Z" fill="white"/>
</svg>
